<?xml version="1.0" encoding="utf-8"?>
<!-- Generator: Adobe Illustrator 23.0.3, SVG Export Plug-In . SVG Version: 6.00 Build 0)  -->
<svg version="1.1" id="Layer_1" xmlns="http://www.w3.org/2000/svg" xmlns:xlink="http://www.w3.org/1999/xlink" x="0px" y="0px"
	 viewBox="0 0 1308 400" style="enable-background:new 0 0 1308 400;" xml:space="preserve">
<style type="text/css">
	.st0{fill:#FFFFFF;}
</style>
<path class="st0" d="M267.08,151.51c-2.25-13.74-14.57-55.73-66.03-55.73c-58.41,0-77.01,53.16-77.01,104.19
	c0,51.16,18.59,104.36,77.01,104.36c41.85,0,59.29-27.7,66.69-63.43h117.3c0,76.72-72.09,158.04-180.74,158.04
	C80.85,398.94,7,312.18,7,199.97C7,84.3,87.66,1,204.29,1c98.05,0,168.46,55.38,179.05,150.51H267.08z"/>
<rect x="1033.45" y="113.81" class="st0" width="105.43" height="276.21"/>
<rect x="1194.95" y="10.05" class="st0" width="105.35" height="379.9"/>
<polygon class="st0" points="1033.45,10.01 1033.45,103.73 1143.45,10.01 "/>
<path class="st0" d="M809.15,271.2c2.92,34.42,22.65,57.84,54.79,57.84c21.33,0,41.28-11.08,48.08-26.75h92.91
	c-18.26,61.27-79.89,95.63-138.86,95.63c-93.67,0-157.96-57.99-157.96-149.42c0-83.4,59.81-151.26,150.82-151.26
	c105.7,0,154.33,73.55,154.33,151.26c0,7.65-0.69,15.32-2.42,22.69H809.15V271.2z M912.3,215.37c0-27.03-19.55-49.15-47.22-49.15
	c-31.95,0-50.46,17.59-55.36,49.15H912.3z"/>
<path class="st0" d="M509.06,136.8c19.55-17.54,45.83-29.99,83.77-29.99c52,0,98.15,30.37,98.15,93.67v189.55H585.59V245.17
	c0-31.83-5.87-54.24-36.68-54.24c-17.67,0-39.85,12.03-39.85,54.76v144.35H403.59V10.05h105.47V136.8z"/>
</svg>
